# xmcd CD database file
#
# Track frame offsets:
#	182
#	10697
#	25755
#	36365
#	52035
#	64800
#	77967
#	92517
#	107652
#	125152
#	136480
#	146872
#	159837
#	174465
#	184985
#	196520
#	206425
#	220435
#	232820
#	246707
#
# Disc length: 3481 seconds
#
# Revision: 5
# Processed by: cddbd v1.5.2PL0 Copyright (c) Steve Scherf et al.
# Submitted via: CDex 1.51
#
DISCID=1f0d9714
DTITLE=Kenny Rogers - 20  Everlasting Hits
DYEAR=2001
DGENRE=Country
TTITLE0=Ticket To Nowhere
TTITLE1=Conditions  (Just Dropped In)
TTITLE2=She Even Woke Me Up To Say Goodbye
TTITLE3=My Washington Woman
TTITLE4=Run Through Your Mind
TTITLE5=Sleep Comes Easy
TTITLE6=After All  (I Live My Life)
TTITLE7=For The Good Times
TTITLE8=Something's Burning
TTITLE9=Hurry Up, Love
TTITLE10=Trying Just As Hard
TTITLE11=Ruby Don't Take Your Love To Town
TTITLE12=Heed The Call
TTITLE13=We All Got To Help Each Other
TTITLE14=Poem For My Little Lady
TTITLE15=Where Does Rosie Go
TTITLE16=Sunshine
TTITLE17=Rueben James
TTITLE18=Loser
TTITLE19=Church Without A Name
EXTD=YEAR: 2001
EXTT0=
EXTT1=
EXTT2=
EXTT3=
EXTT4=
EXTT5=
EXTT6=
EXTT7=
EXTT8=
EXTT9=
EXTT10=
EXTT11=
EXTT12=
EXTT13=
EXTT14=
EXTT15=
EXTT16=
EXTT17=
EXTT18=
EXTT19=
PLAYORDER=
